<svg width="355" height="282" viewBox="0 0 355 282" fill="none" xmlns="http://www.w3.org/2000/svg">
<path d="M172.53 40.4505L172.53 0.351562L235.148 0.351563L263.067 200.171L263.864 200.171L291.783 0.351563L354.401 0.351563L354.401 279.54L312.922 279.54L312.922 68.1546H312.124L280.217 279.54L243.524 279.54L204.741 40.4505L172.53 40.4505Z" fill="black"/>
<path d="M125.862 279.54L125.862 40.2357L57.6543 40.2357L57.6543 0.351563L200.916 0.351563L200.916 40.2357L169.735 40.2357L169.735 279.54L125.862 279.54Z" fill="black"/>
<path d="M20.9329 281.136C12.9561 281.136 6.9735 280.737 0.592041 279.54L0.592041 239.656C5.37814 240.853 10.1642 241.252 14.9503 241.252C32.4993 241.252 40.875 232.876 40.875 214.529L40.875 0.351563L84.7476 0.351563L84.7476 213.333C84.7476 259.2 64.0078 281.136 20.9329 281.136Z" fill="black"/>
</svg>
