<svg width="357" height="284" viewBox="0 0 357 284" fill="none" xmlns="http://www.w3.org/2000/svg">
<mask id="path-1-outside-1_73_19" maskUnits="userSpaceOnUse" x="0.775391" y="0.351562" width="356" height="283" fill="black">
<rect fill="white" x="0.775391" y="0.351562" width="356" height="283"/>
<path fill-rule="evenodd" clip-rule="evenodd" d="M1.77539 280.54C8.15685 281.737 14.1395 282.136 22.1163 282.136C65.1912 282.136 85.9309 260.2 85.9309 214.333L85.9309 41.2357L127.045 41.2357L127.045 280.54H170.918L170.918 41.2357H173.713V41.4505L205.924 41.4505L244.707 280.54H281.4L313.307 69.1546H314.105L314.105 280.54H355.585L355.585 1.35156L292.966 1.35156L265.048 201.171H264.25L236.331 1.35156L202.099 1.35156L173.713 1.35156L85.9309 1.35156L58.8374 1.35156L42.0584 1.35156L42.0584 215.529C42.0584 233.876 33.6827 242.252 16.1337 242.252C11.3476 242.252 6.56149 241.853 1.77539 240.656L1.77539 280.54Z"/>
</mask>
<path d="M1.77539 280.54H0.775391L0.775391 281.37L1.5911 281.523L1.77539 280.54ZM85.9309 41.2357V40.2357H84.9309V41.2357H85.9309ZM127.045 41.2357H128.045V40.2357H127.045V41.2357ZM127.045 280.54H126.045V281.54H127.045V280.54ZM170.918 280.54V281.54H171.918V280.54H170.918ZM170.918 41.2357V40.2357H169.918V41.2357H170.918ZM173.713 41.2357H174.713V40.2357H173.713V41.2357ZM173.713 41.4505H172.713V42.4505H173.713V41.4505ZM205.924 41.4505L206.911 41.2904L206.775 40.4505H205.924V41.4505ZM244.707 280.54L243.72 280.701L243.856 281.54H244.707V280.54ZM281.4 280.54V281.54H282.26L282.389 280.69L281.4 280.54ZM313.307 69.1546V68.1546H312.447L312.319 69.0053L313.307 69.1546ZM314.105 69.1546H315.105V68.1546H314.105V69.1546ZM314.105 280.54H313.105V281.54H314.105V280.54ZM355.585 280.54V281.54H356.585V280.54H355.585ZM355.585 1.35156L356.585 1.35156V0.351563L355.585 0.351563V1.35156ZM292.966 1.35156V0.351563L292.096 0.351563L291.976 1.21319L292.966 1.35156ZM265.048 201.171V202.171H265.918L266.038 201.309L265.048 201.171ZM264.25 201.171L263.259 201.309L263.38 202.171H264.25V201.171ZM236.331 1.35156L237.321 1.21319L237.201 0.351563L236.331 0.351563V1.35156ZM42.0584 1.35156V0.351563L41.0584 0.351563V1.35156L42.0584 1.35156ZM1.77539 240.656L2.01793 239.686L0.775391 239.376L0.775391 240.656H1.77539ZM22.1163 281.136C14.1764 281.136 8.25998 280.739 1.95968 279.558L1.5911 281.523C8.05372 282.735 14.1026 283.136 22.1163 283.136V281.136ZM84.9309 214.333C84.9309 237.136 79.7732 253.791 69.4489 264.749C59.1358 275.694 43.4947 281.136 22.1163 281.136V283.136C43.8128 283.136 60.079 277.61 70.9045 266.12C81.7188 254.643 86.9309 237.396 86.9309 214.333H84.9309ZM84.9309 41.2357L84.9309 214.333H86.9309L86.9309 41.2357H84.9309ZM85.9309 42.2357L127.045 42.2357V40.2357L85.9309 40.2357V42.2357ZM126.045 41.2357L126.045 280.54H128.045L128.045 41.2357H126.045ZM127.045 281.54H170.918V279.54H127.045V281.54ZM171.918 280.54L171.918 41.2357H169.918L169.918 280.54H171.918ZM170.918 42.2357H173.713V40.2357H170.918V42.2357ZM172.713 41.2357V41.4505H174.713V41.2357H172.713ZM173.713 42.4505L205.924 42.4505V40.4505L173.713 40.4505V42.4505ZM204.937 41.6106L243.72 280.701L245.694 280.38L206.911 41.2904L204.937 41.6106ZM244.707 281.54H281.4V279.54H244.707V281.54ZM282.389 280.69L314.296 69.3038L312.319 69.0053L280.411 280.391L282.389 280.69ZM313.307 70.1546H314.105V68.1546H313.307V70.1546ZM313.105 69.1546L313.105 280.54H315.105L315.105 69.1546H313.105ZM314.105 281.54H355.585V279.54H314.105V281.54ZM356.585 280.54L356.585 1.35156L354.585 1.35156L354.585 280.54H356.585ZM355.585 0.351563L292.966 0.351563V2.35156L355.585 2.35156V0.351563ZM291.976 1.21319L264.057 201.033L266.038 201.309L293.957 1.48994L291.976 1.21319ZM265.048 200.171H264.25V202.171H265.048V200.171ZM265.24 201.033L237.321 1.21319L235.341 1.48994L263.259 201.309L265.24 201.033ZM236.331 0.351563L202.099 0.351563V2.35156L236.331 2.35156V0.351563ZM202.099 0.351563L173.713 0.351563V2.35156L202.099 2.35156V0.351563ZM173.713 0.351563L85.9309 0.351563V2.35156L173.713 2.35156V0.351563ZM85.9309 0.351563L58.8374 0.351563V2.35156L85.9309 2.35156V0.351563ZM42.0584 2.35156L58.8374 2.35156V0.351563L42.0584 0.351563V2.35156ZM43.0584 215.529L43.0584 1.35156L41.0584 1.35156L41.0584 215.529H43.0584ZM16.1337 243.252C25.0505 243.252 31.8431 241.124 36.3921 236.469C40.9363 231.82 43.0584 224.834 43.0584 215.529H41.0584C41.0584 224.571 38.9926 230.947 34.9617 235.072C30.9356 239.191 24.7658 241.252 16.1337 241.252V243.252ZM1.53286 241.627C6.42079 242.848 11.2928 243.252 16.1337 243.252V241.252C11.4023 241.252 6.70219 240.857 2.01793 239.686L1.53286 241.627ZM2.77539 280.54L2.77539 240.656H0.775391L0.775391 280.54H2.77539Z" fill="black" mask="url(#path-1-outside-1_73_19)"/>
</svg>
